<svg xmlns="http://www.w3.org/2000/svg" xmlns:xlink="http://www.w3.org/1999/xlink" width="38" height="38" viewBox="0 0 38 38"><defs><clipPath id="b"><rect width="38" height="38"/></clipPath></defs><g id="a" clip-path="url(#b)"><g transform="translate(1.272 0.126)"><path d="M22.583,16.7a7.183,7.183,0,1,0,7.183,7.183A7.2,7.2,0,0,0,22.583,16.7Zm0,11.784a4.6,4.6,0,1,1,4.6-4.6A4.622,4.622,0,0,1,22.583,28.484Z" transform="translate(-5.266 -5.222)" fill="#8f8f8f"/><circle cx="1.627" cy="1.627" r="1.627" transform="translate(23.153 9.682)" fill="#8f8f8f"/><path d="M28.989,7.1A7.992,7.992,0,0,0,23.1,4.8H11.537C6.655,4.8,3.4,8.055,3.4,12.937v11.5a8.075,8.075,0,0,0,2.357,6,8.189,8.189,0,0,0,5.836,2.189H23.041a8.286,8.286,0,0,0,5.892-2.189,8.034,8.034,0,0,0,2.3-5.948V12.937A8.044,8.044,0,0,0,28.989,7.1Zm-.224,17.4a5.483,5.483,0,0,1-1.627,4.1,5.8,5.8,0,0,1-4.1,1.459H11.593a5.8,5.8,0,0,1-4.1-1.459,5.641,5.641,0,0,1-1.515-4.153v-11.5A5.594,5.594,0,0,1,7.5,8.84a5.707,5.707,0,0,1,4.1-1.459h11.56a5.594,5.594,0,0,1,4.1,1.515,5.791,5.791,0,0,1,1.515,4.04V24.5Z" transform="translate(0 0)" fill="#8f8f8f"/></g></g></svg>
