<svg xmlns="http://www.w3.org/2000/svg" xmlns:xlink="http://www.w3.org/1999/xlink" width="86" height="86" viewBox="0 0 86 86"><defs><clipPath id="b"><rect width="86" height="86"/></clipPath></defs><g id="a" clip-path="url(#b)"><g transform="translate(-67.12 -277.053)" opacity="0.497"><g transform="translate(67.12 281.52)" opacity="0.4"><path d="M171.922,290.812c8.091,0,12.183,1.611,14.013,5.3l7.414-4.829h7.3a42.664,42.664,0,0,0-54.858.458,35.783,35.783,0,0,1,9.086-.925Z" transform="translate(-130.83 -281.52)"/><path d="M115.142,425.058h-13.61c-1.977,0-3.373.872-3.78,2.791H86.585v-16.2H74.606V397.292c0-5.189,3.382-8.629,11.72-9.212l14.824-.933c9.455-.584,10.1-.759,10.1-4.9,0-3.445-.35-4.2-8.638-4.2H94.03c-5.486,0-7.179.818-7.179,5.2v1.81H74.606v-4.963A17.564,17.564,0,0,1,74.724,378a42.667,42.667,0,0,0,10.787,59.4,16.786,16.786,0,0,1-.322-3.447v-2.443H97.054c0,3.548.989,4.537,6.921,4.537h12.1c5.933,0,6.572-1.628,6.572-5.7C122.645,425.581,121.075,425.058,115.142,425.058Z" transform="translate(-67.12 -359.652)"/><path d="M227.613,379.9v33.281h-11.9v-32.09l-9.858,6.316c-.7,8.466-4.169,10.132-17.229,10.837l-13.365.7c-5.428.292-6.244,1.344-6.244,5.141h41.746v9.1h-30.5v7.306c1.629-1.629,3.373-2.617,8.026-2.617h14.6c8.957,0,14.133,2.908,14.133,12.214v2.676a21.464,21.464,0,0,1-.815,6.43,42.631,42.631,0,0,0,18.637-32.157q.116-1.575.117-3.18A42.462,42.462,0,0,0,227.613,379.9Z" transform="translate(-149.639 -361.185)"/></g></g></g></svg>
