<svg id="Layer_1" data-name="Layer 1" xmlns="http://www.w3.org/2000/svg" viewBox="0 0 595.28 841.89"><defs><style>.cls-1{opacity:0.4;}.cls-2{fill:#fff;}</style></defs><g class="cls-1"><path class="cls-2" d="M434.21,332.83H395.82l-39,25.38c-9.62-19.37-31.13-27.84-73.67-27.84h-89.6c-19.38,0-35.19,1.48-47.78,4.87a224.3,224.3,0,0,1,288.42-2.41Z"/><path class="cls-2" d="M359.05,653.22c0,21.41-3.36,30-34.55,30H260.89c-31.19,0-36.39-5.2-36.39-23.85H162.12v12.84a88.23,88.23,0,0,0,1.69,18.12A224.33,224.33,0,0,1,107.1,378a92,92,0,0,0-.62,10.93V415h64.38v-9.52c0-23,8.9-27.32,37.74-27.32h45.11c43.57,0,45.41,4,45.41,22.1,0,21.8-3.37,22.72-53.08,25.79L168.1,431c-43.84,3.06-61.62,21.15-61.62,48.43v75.46h63v85.19h58.71c2.14-10.09,9.48-14.67,19.88-14.67H319.6C350.79,625.4,359.05,628.15,359.05,653.22Z"/><path class="cls-2" d="M515.74,505.83q0,8.43-.61,16.72a224.17,224.17,0,0,1-98,169.07c2.87-9,4.29-20.17,4.29-33.81V643.74c0-48.92-27.21-64.21-74.31-64.21H270.37c-24.46,0-33.64,5.2-42.2,13.76V554.88H388.51V507.05H169c0-20,4.29-25.49,32.83-27l70.27-3.68c68.66-3.71,86.9-12.47,90.58-57l51.83-33.21V554.88h62.54v-175A223.2,223.2,0,0,1,515.74,505.83Z"/></g></svg>
